<?xml version="1.0" encoding="utf-8"?>
<!-- Generator: Adobe Illustrator 16.0.0, SVG Export Plug-In . SVG Version: 6.00 Build 0)  -->
<!DOCTYPE svg PUBLIC "-//W3C//DTD SVG 1.1//EN" "http://www.w3.org/Graphics/SVG/1.1/DTD/svg11.dtd">
<svg version="1.1" id="Capa_1" xmlns="http://www.w3.org/2000/svg" xmlns:xlink="http://www.w3.org/1999/xlink" x="0px" y="0px"
	 width="458.166px" height="103.57px" viewBox="0 0 458.166 103.57" enable-background="new 0 0 458.166 103.57"
	 xml:space="preserve">
<g>
	<path fill="#FFFFFF" d="M96.369,40.928c0-2.437,0.393-4.55,1.177-6.34c0.786-1.79,1.875-3.272,3.269-4.455
		c1.395-1.182,3.022-2.058,4.889-2.63c1.863-0.571,3.877-0.857,6.036-0.857c0.785,0,1.552,0.063,2.297,0.192
		c0.745,0.13,1.354,0.288,1.825,0.472v-8.967c0.393-0.111,1.021-0.229,1.885-0.36c0.862-0.128,1.748-0.192,2.649-0.192
		c0.862,0,1.641,0.056,2.327,0.166c0.686,0.109,1.264,0.333,1.736,0.665c0.472,0.332,0.824,0.785,1.061,1.355
		c0.234,0.572,0.354,1.318,0.354,2.243v26.238c0,1.734-0.864,3.119-2.591,4.151c-1.14,0.701-2.611,1.319-4.417,1.854
		c-1.807,0.534-3.889,0.804-6.243,0.804c-2.552,0-4.837-0.332-6.859-0.997s-3.729-1.625-5.123-2.879
		c-1.395-1.253-2.453-2.758-3.18-4.512C96.731,45.127,96.369,43.143,96.369,40.928 M113.093,34.008c-2.119,0-3.75,0.572-4.889,1.717
		s-1.707,2.879-1.707,5.204c0,2.288,0.53,4.013,1.589,5.176c1.062,1.162,2.592,1.743,4.594,1.743c0.708,0,1.345-0.102,1.915-0.306
		c0.567-0.203,1.01-0.433,1.324-0.69V34.673C115.133,34.229,114.192,34.008,113.093,34.008"/>
	<path fill="#FFFFFF" d="M146.068,55.267c-2.315,0-4.466-0.309-6.446-0.915c-1.982-0.607-3.71-1.521-5.183-2.74
		c-1.473-1.217-2.629-2.75-3.475-4.596c-0.846-1.845-1.268-4.003-1.268-6.476c0-2.437,0.422-4.53,1.268-6.284
		c0.845-1.751,1.951-3.189,3.326-4.315c1.374-1.126,2.944-1.957,4.711-2.491c1.767-0.535,3.57-0.804,5.417-0.804
		c2.081,0,3.976,0.295,5.685,0.886c1.708,0.591,3.179,1.402,4.417,2.436c1.235,1.035,2.196,2.27,2.885,3.711
		c0.688,1.438,1.03,3.007,1.03,4.703c0,1.256-0.373,2.216-1.119,2.881c-0.746,0.663-1.786,1.088-3.121,1.272l-14.544,2.047
		c0.431,1.218,1.313,2.132,2.649,2.739c1.333,0.61,2.864,0.915,4.594,0.915c1.608,0,3.13-0.194,4.563-0.58
		c1.433-0.389,2.602-0.841,3.504-1.356c0.628,0.369,1.157,0.887,1.592,1.55c0.43,0.664,0.646,1.366,0.646,2.104
		c0,1.66-0.824,2.896-2.473,3.708c-1.259,0.628-2.671,1.053-4.241,1.272C148.916,55.154,147.443,55.267,146.068,55.267
		 M144.42,33.509c-0.94,0-1.757,0.149-2.442,0.444c-0.688,0.296-1.247,0.673-1.679,1.135c-0.433,0.462-0.756,0.979-0.972,1.55
		c-0.217,0.572-0.344,1.154-0.383,1.743l10.068-1.549c-0.117-0.738-0.55-1.476-1.295-2.215
		C146.973,33.879,145.873,33.509,144.42,33.509"/>
	<path fill="#FFFFFF" d="M180.222,37.33c0-1.144-0.344-1.982-1.03-2.519c-0.688-0.536-1.62-0.804-2.797-0.804
		c-0.787,0-1.562,0.093-2.326,0.276s-1.424,0.461-1.974,0.83v19.21c-0.395,0.107-1.011,0.221-1.854,0.331
		c-0.845,0.11-1.719,0.166-2.622,0.166c-0.864,0-1.641-0.056-2.325-0.166c-0.688-0.11-1.267-0.331-1.736-0.664
		c-0.473-0.332-0.834-0.784-1.092-1.356c-0.254-0.571-0.381-1.319-0.381-2.241V33.785c0-0.995,0.226-1.808,0.677-2.436
		c0.45-0.626,1.068-1.199,1.854-1.716c1.334-0.885,3.013-1.604,5.033-2.158c2.021-0.553,4.271-0.83,6.744-0.83
		c4.436,0,7.852,0.914,10.246,2.739c2.395,1.827,3.593,4.364,3.593,7.611v17.328c-0.394,0.107-1.012,0.221-1.854,0.331
		c-0.845,0.11-1.717,0.166-2.62,0.166c-0.863,0-1.64-0.056-2.326-0.166c-0.688-0.11-1.268-0.331-1.737-0.664
		c-0.47-0.332-0.834-0.784-1.088-1.356c-0.258-0.571-0.384-1.319-0.384-2.241V37.33L180.222,37.33z"/>
	<path fill="#FFFFFF" d="M206.426,45.134c0,0.962,0.325,1.644,0.973,2.05c0.646,0.405,1.562,0.607,2.738,0.607
		c0.588,0,1.197-0.045,1.825-0.138c0.626-0.094,1.178-0.212,1.647-0.359c0.354,0.407,0.657,0.857,0.913,1.355
		c0.254,0.498,0.383,1.1,0.383,1.8c0,1.402-0.559,2.546-1.679,3.432c-1.117,0.887-3.092,1.33-5.917,1.33
		c-3.454,0-6.114-0.74-7.979-2.216c-1.866-1.476-2.799-3.875-2.799-7.196V22.106c0.432-0.109,1.05-0.229,1.854-0.359
		c0.804-0.129,1.658-0.192,2.562-0.192c1.727,0,3.071,0.285,4.034,0.857c0.961,0.571,1.441,1.78,1.441,3.625v3.543h7.716
		c0.234,0.406,0.46,0.914,0.676,1.521c0.218,0.608,0.324,1.283,0.324,2.021c0,1.294-0.306,2.226-0.913,2.797
		s-1.424,0.856-2.441,0.856h-5.36L206.426,45.134L206.426,45.134z"/>
	<path fill="#FFFFFF" d="M231.747,26.646c2.121,0,4.052,0.203,5.802,0.609c1.743,0.406,3.238,1.024,4.475,1.854
		c1.235,0.83,2.188,1.882,2.855,3.155c0.667,1.272,1,2.776,1,4.511v12.399c0,0.96-0.284,1.743-0.854,2.354s-1.247,1.135-2.03,1.578
		c-2.554,1.438-6.146,2.159-10.777,2.159c-2.079,0-3.954-0.188-5.622-0.555c-1.67-0.369-3.103-0.923-4.3-1.662
		c-1.196-0.737-2.119-1.678-2.768-2.821c-0.646-1.145-0.971-2.474-0.971-3.985c0-2.548,0.804-4.501,2.414-5.868
		c1.608-1.365,4.103-2.215,7.479-2.546l7.714-0.773v-0.39c0-1.069-0.5-1.835-1.502-2.297c-1.002-0.461-2.444-0.692-4.329-0.692
		c-1.491,0-2.943,0.147-4.354,0.442c-1.414,0.296-2.689,0.665-3.829,1.106c-0.511-0.332-0.94-0.838-1.295-1.521
		s-0.528-1.393-0.528-2.131c0-0.958,0.244-1.725,0.734-2.298c0.49-0.57,1.246-1.061,2.269-1.467c1.137-0.405,2.481-0.7,4.032-0.885
		C228.91,26.74,230.372,26.646,231.747,26.646 M232.217,48.4c0.667,0,1.404-0.063,2.208-0.192c0.805-0.129,1.404-0.305,1.798-0.526
		v-4.429l-4.24,0.331c-1.1,0.075-2.001,0.296-2.709,0.666c-0.707,0.368-1.061,0.921-1.061,1.659s0.306,1.338,0.913,1.8
		C229.734,48.171,230.766,48.4,232.217,48.4"/>
	<path fill="#FFFFFF" d="M262.19,54.325c-0.435,0.071-1.069,0.173-1.913,0.304c-0.846,0.129-1.696,0.193-2.563,0.193
		c-0.861,0-1.639-0.056-2.324-0.166c-0.688-0.112-1.268-0.331-1.739-0.664c-0.47-0.332-0.833-0.784-1.087-1.356
		c-0.257-0.571-0.385-1.318-0.385-2.24V18.287c0.432-0.074,1.069-0.177,1.913-0.306c0.847-0.128,1.698-0.193,2.563-0.193
		s1.642,0.056,2.326,0.167c0.688,0.109,1.269,0.332,1.736,0.664c0.472,0.332,0.836,0.783,1.091,1.355
		c0.256,0.571,0.383,1.318,0.383,2.241V54.325z"/>
	<path fill="#FFFFFF" d="M294.223,26.646c2.237,0,4.271,0.269,6.096,0.804c1.823,0.534,3.366,1.229,4.621,2.076
		c0.785,0.517,1.404,1.089,1.854,1.716c0.45,0.628,0.679,1.439,0.679,2.438v19.374c0,1.953-0.395,3.643-1.18,5.063
		c-0.784,1.42-1.854,2.602-3.208,3.544c-1.354,0.939-2.944,1.632-4.771,2.073c-1.824,0.444-3.778,0.665-5.859,0.665
		c-3.571,0-6.38-0.451-8.42-1.354c-2.042-0.905-3.063-2.373-3.063-4.402c0-0.849,0.188-1.598,0.562-2.239
		c0.371-0.646,0.793-1.135,1.266-1.469c1.139,0.59,2.423,1.089,3.857,1.495c1.434,0.404,2.915,0.606,4.445,0.606
		c2.12,0,3.808-0.331,5.063-0.994c1.255-0.666,1.886-1.734,1.886-3.211v-0.887c-1.61,0.664-3.574,0.997-5.89,0.997
		c-1.768,0-3.446-0.251-5.036-0.749c-1.59-0.497-2.983-1.271-4.182-2.324s-2.156-2.408-2.885-4.069
		c-0.728-1.659-1.089-3.634-1.089-5.924c0-2.25,0.383-4.206,1.146-5.866c0.766-1.66,1.825-3.035,3.179-4.125
		c1.354-1.088,2.966-1.899,4.829-2.436C289.995,26.914,292.025,26.646,294.223,26.646 M297.875,34.673
		c-0.273-0.146-0.681-0.296-1.208-0.442c-0.528-0.147-1.188-0.222-1.974-0.222c-1.922,0-3.366,0.508-4.327,1.522
		c-0.963,1.015-1.442,2.463-1.442,4.344c0,2.143,0.479,3.682,1.442,4.623c0.961,0.941,2.188,1.412,3.68,1.412
		c1.609,0,2.887-0.351,3.829-1.053V34.673z"/>
	<path fill="#FFFFFF" d="M327.611,55.267c-2.315,0-4.465-0.309-6.446-0.915c-1.982-0.607-3.711-1.521-5.184-2.74
		c-1.473-1.217-2.63-2.75-3.475-4.596c-0.847-1.845-1.268-4.003-1.268-6.476c0-2.437,0.421-4.53,1.268-6.284
		c0.845-1.751,1.95-3.189,3.325-4.315c1.374-1.126,2.944-1.957,4.713-2.491c1.766-0.535,3.57-0.804,5.417-0.804
		c2.079,0,3.975,0.295,5.685,0.886c1.706,0.591,3.178,1.402,4.416,2.436c1.235,1.035,2.199,2.27,2.885,3.711
		c0.688,1.438,1.03,3.007,1.03,4.703c0,1.256-0.373,2.216-1.118,2.881c-0.746,0.663-1.785,1.088-3.121,1.272l-14.544,2.047
		c0.431,1.218,1.313,2.132,2.649,2.739c1.333,0.61,2.863,0.915,4.592,0.915c1.609,0,3.13-0.194,4.563-0.58
		c1.435-0.389,2.604-0.841,3.505-1.356c0.63,0.369,1.156,0.887,1.591,1.55c0.432,0.664,0.647,1.366,0.647,2.104
		c0,1.66-0.824,2.896-2.474,3.708c-1.258,0.628-2.671,1.053-4.241,1.272C330.455,55.154,328.983,55.267,327.611,55.267
		 M325.962,33.509c-0.942,0-1.759,0.149-2.442,0.444c-0.688,0.296-1.248,0.673-1.68,1.135c-0.434,0.462-0.757,0.979-0.974,1.55
		c-0.215,0.572-0.344,1.154-0.383,1.743l10.07-1.549c-0.117-0.738-0.55-1.476-1.296-2.215
		C328.514,33.879,327.415,33.509,325.962,33.509"/>
	<path fill="#FFFFFF" d="M361.765,37.33c0-1.144-0.345-1.982-1.031-2.519c-0.688-0.536-1.619-0.804-2.797-0.804
		c-0.787,0-1.562,0.093-2.325,0.276c-0.766,0.185-1.423,0.461-1.975,0.83v19.21c-0.395,0.107-1.011,0.221-1.854,0.331
		s-1.719,0.166-2.62,0.166c-0.864,0-1.639-0.056-2.325-0.166c-0.688-0.11-1.268-0.331-1.736-0.664
		c-0.473-0.332-0.834-0.784-1.092-1.356c-0.255-0.571-0.38-1.319-0.38-2.241V33.785c0-0.995,0.225-1.808,0.677-2.436
		c0.449-0.626,1.065-1.199,1.854-1.716c1.333-0.885,3.014-1.604,5.036-2.158c2.02-0.553,4.268-0.83,6.74-0.83
		c4.435,0,7.853,0.914,10.246,2.739c2.396,1.827,3.592,4.364,3.592,7.611v17.328c-0.394,0.107-1.012,0.221-1.854,0.331
		c-0.845,0.11-1.717,0.166-2.618,0.166c-0.864,0-1.642-0.056-2.327-0.166c-0.687-0.11-1.268-0.331-1.735-0.664
		c-0.473-0.332-0.836-0.784-1.09-1.356c-0.257-0.571-0.383-1.319-0.383-2.241L361.765,37.33L361.765,37.33z"/>
	<path fill="#FFFFFF" d="M376.545,20.003c0-1.401,0.499-2.583,1.5-3.542c1.001-0.958,2.326-1.439,3.976-1.439
		c1.648,0,2.976,0.48,3.976,1.439c1.001,0.96,1.501,2.142,1.501,3.542c0,1.404-0.5,2.583-1.501,3.542
		c-1,0.961-2.325,1.439-3.976,1.439c-1.647,0-2.975-0.479-3.976-1.439C377.044,22.586,376.545,21.407,376.545,20.003
		 M387.027,54.325c-0.433,0.071-1.072,0.173-1.914,0.304c-0.845,0.129-1.699,0.193-2.563,0.193c-0.863,0-1.64-0.056-2.324-0.166
		c-0.688-0.112-1.269-0.331-1.737-0.664c-0.47-0.332-0.833-0.784-1.089-1.356c-0.256-0.571-0.384-1.318-0.384-2.24v-22.53
		c0.433-0.073,1.069-0.175,1.914-0.305c0.845-0.129,1.696-0.193,2.563-0.193c0.861,0,1.639,0.054,2.324,0.166
		c0.688,0.109,1.269,0.333,1.738,0.663c0.47,0.332,0.835,0.784,1.089,1.355c0.256,0.573,0.384,1.319,0.384,2.243V54.325z"/>
	<path fill="#FFFFFF" d="M407.341,55.267c-2.315,0-4.468-0.309-6.447-0.915c-1.982-0.607-3.708-1.521-5.182-2.74
		c-1.474-1.217-2.631-2.75-3.475-4.596c-0.847-1.845-1.267-4.003-1.267-6.476c0-2.437,0.42-4.53,1.267-6.284
		c0.844-1.751,1.951-3.189,3.325-4.315s2.945-1.957,4.712-2.491c1.769-0.535,3.571-0.804,5.417-0.804
		c2.08,0,3.978,0.295,5.685,0.886c1.709,0.591,3.18,1.402,4.413,2.436c1.238,1.035,2.199,2.27,2.889,3.711
		c0.688,1.438,1.029,3.007,1.029,4.703c0,1.256-0.372,2.216-1.118,2.881c-0.745,0.663-1.786,1.088-3.12,1.272l-14.544,2.047
		c0.431,1.218,1.313,2.132,2.647,2.739c1.334,0.61,2.864,0.915,4.596,0.915c1.607,0,3.129-0.194,4.562-0.58
		c1.433-0.389,2.601-0.841,3.505-1.356c0.627,0.369,1.156,0.887,1.589,1.55c0.435,0.663,0.647,1.366,0.647,2.104
		c0,1.66-0.824,2.896-2.472,3.708c-1.261,0.628-2.673,1.053-4.24,1.272C410.188,55.154,408.716,55.267,407.341,55.267
		 M405.693,33.509c-0.941,0-1.759,0.149-2.441,0.444c-0.688,0.296-1.248,0.673-1.681,1.135c-0.432,0.462-0.757,0.979-0.971,1.55
		c-0.217,0.572-0.347,1.154-0.385,1.743l10.068-1.549c-0.115-0.738-0.549-1.476-1.294-2.215
		C408.244,33.879,407.145,33.509,405.693,33.509"/>
	<path fill="#FFFFFF" d="M48.118,44.538c-3.007,0-5.342-0.623-6.756-1.801c-1.168-0.975-1.343-2.059-1.343-2.619
		c0-0.407-0.331-0.74-0.74-0.74c-0.406,0-0.738,0.333-0.738,0.74c0,0.817,0.245,2.396,1.876,3.756
		c1.683,1.401,4.346,2.145,7.701,2.145c0.409,0,0.739-0.332,0.739-0.74C48.858,44.868,48.528,44.538,48.118,44.538"/>
	<path fill="#FFFFFF" d="M35.545,40.046c0.109-1.56,0.026-5.957-1.667-7.538c-0.516-0.48-1.146-0.662-1.933-0.553
		c-1.307,0.183-2.066,0.881-2.267,2.08c-0.383,2.315,1.521,5.98,5.263,7.858c0.433,0.216,0.808,0.507,1.115,0.846
		c-0.285-0.762-0.444-1.563-0.471-2.39C35.554,40.257,35.539,40.154,35.545,40.046"/>
	<path fill="#FFFFFF" d="M78.612,15.49h-61.2c-3.537,0-6.406,2.866-6.406,6.404v61.199c0,3.536,2.869,6.403,6.406,6.403h61.199
		c3.538,0,6.405-2.867,6.405-6.403V21.894C85.017,18.355,82.15,15.49,78.612,15.49 M61.723,41.879c0.532,0,0.966,0.434,0.966,0.967
		c0,0.531-0.434,0.965-0.966,0.965s-0.967-0.434-0.967-0.965C60.757,42.312,61.191,41.879,61.723,41.879 M57.214,34.259
		c0.485,3.115,0.237,2.867,3.354,3.354c-3.09,0.482-2.875,0.284-3.354,3.353c-0.485-3.112-0.238-2.866-3.353-3.353
		C56.976,37.126,56.728,37.374,57.214,34.259 M44.817,40.885l-3.19-3.189c-0.354-0.354-0.354-0.927,0-1.28l4.482-4.481
		c0.354-0.354,0.928-0.354,1.281,0l4.48,4.481c0.354,0.354,0.354,0.927,0,1.28l-3.188,3.189c2.908,0.486,5.532,2.059,7.341,4.365
		c-0.021,0-0.042,0-0.054,0h-0.02h-0.037h-0.027H37.477C39.287,42.942,41.91,41.371,44.817,40.885 M34.055,39.035
		c0.533,0,0.966,0.432,0.966,0.966s-0.433,0.965-0.966,0.965c-0.534,0-0.967-0.432-0.967-0.965S33.521,39.035,34.055,39.035
		 M27.813,32.408c0.485,3.113,0.239,2.866,3.353,3.354c-3.088,0.481-2.873,0.283-3.353,3.353c-0.485-3.115-0.238-2.867-3.353-3.353
		C27.575,35.275,27.328,35.522,27.813,32.408 M26.845,71.038c-0.487-3.112-0.239-2.866-3.354-3.354
		c3.112-0.485,2.865-0.237,3.354-3.354c0.485,3.113,0.238,2.866,3.352,3.354C27.108,68.169,27.325,67.969,26.845,71.038
		 M23.285,61.543c0-0.53,0.435-0.966,0.966-0.966c0.534,0,0.966,0.436,0.966,0.966c0,0.533-0.432,0.967-0.966,0.967
		C23.719,62.51,23.285,62.076,23.285,61.543 M57.695,73.32H34.152c-0.5,0-0.905-0.405-0.905-0.904c0-0.502,0.406-0.907,0.905-0.907
		c4.319,0,7.613-3.201,8.829-4.579c0.022-0.026,0.04-0.056,0.061-0.084c0.928,0.091,1.889,0.137,2.883,0.137
		c0.976,0,1.932-0.057,2.866-0.158c0.021,0.036,0.047,0.072,0.075,0.105c1.216,1.378,4.51,4.579,8.828,4.579
		c0.5,0,0.906,0.405,0.906,0.907C58.601,72.914,58.194,73.32,57.695,73.32 M58.275,68.24c-0.533,0-0.965-0.433-0.965-0.967
		c0-0.531,0.433-0.964,0.965-0.964c0.533,0,0.966,0.433,0.966,0.964C59.24,67.809,58.809,68.24,58.275,68.24 M67.542,66.298
		c-0.486-3.112-0.238-2.865-3.354-3.354c3.114-0.485,2.866-0.236,3.354-3.353c0.484,3.114,0.238,2.865,3.353,3.353
		C67.805,63.428,68.021,63.229,67.542,66.298 M78.812,44.295c-0.812,0.277-3.133,1.25-4.122,2.438
		c-0.238,0.288-0.49,0.595-0.757,0.916C68.883,53.771,59.479,65.17,45.925,65.17c-4.968,0-9.027-1.196-11.746-3.464
		c-0.765-0.637-1.413-1.346-1.942-2.113c0.137,0.61,0.145,1.253,0,1.887c-0.241,1.069-0.847,1.952-1.799,2.621
		c-0.157,0.111-0.339,0.165-0.52,0.165c-0.285,0-0.564-0.135-0.742-0.385c-0.287-0.409-0.188-0.976,0.221-1.262
		c0.582-0.408,0.932-0.913,1.073-1.539c0.265-1.171-0.349-2.387-1.488-2.959c-5.383-2.704-7.998-7.988-7.414-11.534
		c0.369-2.239,1.939-3.716,4.311-4.045c1.518-0.212,2.813,0.175,3.854,1.147c1.434,1.342,2.104,3.627,2.409,5.743
		c1.135-1.473,2.804-2.374,4.729-2.374h19.015l0.024,0.001c0.005,0,0.052,0,0.136,0c1.087,0,8.411-0.168,13.771-4.337
		c0.158-0.125,0.354-0.19,0.558-0.19h8.147c0.443,0,0.823,0.32,0.895,0.758C79.488,43.729,79.231,44.154,78.812,44.295"/>
</g>
<g>
	<path fill="#FFFFFF" d="M97.888,69.842h3.479V76.4l6.181-6.56h4.344l-6.183,6.248l6.779,9.571h-4.364l-4.764-7.112l-1.993,2.018
		v5.097h-3.479V69.842z"/>
	<path fill="#FFFFFF" d="M113.551,74.207h2.991v1.595h0.065c0.797-1.284,2.171-1.904,3.5-1.904c3.347,0,4.188,1.884,4.188,4.72
		v7.046h-3.146v-6.471c0-1.883-0.554-2.813-2.017-2.813c-1.705,0-2.438,0.952-2.438,3.279v6.004h-3.146L113.551,74.207
		L113.551,74.207z"/>
	<path fill="#FFFFFF" d="M132.249,73.896c3.611,0,5.938,2.394,5.938,6.049c0,3.634-2.326,6.026-5.938,6.026
		c-3.589,0-5.916-2.395-5.916-6.026C126.333,76.289,128.66,73.896,132.249,73.896z M132.249,83.601c2.148,0,2.792-1.839,2.792-3.655
		c0-1.839-0.644-3.678-2.792-3.678c-2.127,0-2.77,1.839-2.77,3.678C129.48,81.762,130.122,83.601,132.249,83.601z"/>
	<path fill="#FFFFFF" d="M153.318,85.661h-3.234l-2.038-7.688h-0.044l-1.949,7.688h-3.258l-3.634-11.454h3.322l2.104,7.775h0.044
		l1.905-7.775h3.059l1.949,7.754h0.044l2.104-7.754h3.235L153.318,85.661z"/>
	<path fill="#FFFFFF" d="M164.417,69.842h3.146v5.762h0.044c0.774-1.175,2.192-1.706,3.611-1.706c2.281,0,4.741,1.839,4.741,6.025
		c0,4.21-2.459,6.05-4.741,6.05c-1.685,0-3.08-0.511-3.767-1.771h-0.044v1.462h-2.991V69.842z M170.133,76.268
		c-1.86,0-2.681,1.75-2.681,3.678c0,1.905,0.819,3.655,2.681,3.655c1.862,0,2.682-1.75,2.682-3.655
		C172.813,78.018,171.994,76.268,170.133,76.268z"/>
	<path fill="#FFFFFF" d="M180.545,80.698c0.089,1.993,1.063,2.901,2.813,2.901c1.264,0,2.282-0.774,2.48-1.483h2.771
		c-0.886,2.702-2.771,3.854-5.361,3.854c-3.61,0-5.85-2.48-5.85-6.026c0-3.436,2.371-6.049,5.85-6.049
		c3.898,0,5.782,3.278,5.562,6.803H180.545z M185.663,78.704c-0.288-1.596-0.976-2.438-2.504-2.438c-1.994,0-2.57,1.551-2.614,2.438
		H185.663z"/>
	<path fill="#FFFFFF" d="M191.356,76.312h-1.883v-2.104h1.883V73.32c0-2.016,1.264-3.479,3.833-3.479c0.555,0,1.13,0.066,1.662,0.09
		v2.349c-0.376-0.045-0.753-0.065-1.151-0.065c-0.843,0-1.196,0.354-1.196,1.308v0.688h2.171v2.104h-2.171v9.351h-3.146
		L191.356,76.312L191.356,76.312z"/>
	<path fill="#FFFFFF" d="M203.607,73.896c3.612,0,5.938,2.394,5.938,6.049c0,3.634-2.325,6.026-5.938,6.026
		c-3.589,0-5.916-2.395-5.916-6.026C197.692,76.289,200.019,73.896,203.607,73.896z M203.607,83.601
		c2.148,0,2.792-1.839,2.792-3.655c0-1.839-0.644-3.678-2.792-3.678c-2.127,0-2.77,1.839-2.77,3.678
		C200.838,81.762,201.48,83.601,203.607,83.601z"/>
	<path fill="#FFFFFF" d="M211.583,74.207h2.991v2.127h0.044c0.575-1.439,2.127-2.438,3.655-2.438c0.222,0,0.486,0.044,0.688,0.109
		v2.926c-0.288-0.065-0.753-0.11-1.13-0.11c-2.305,0-3.103,1.661-3.103,3.679v5.162h-3.146L211.583,74.207L211.583,74.207z"/>
	<path fill="#FFFFFF" d="M222.416,80.698c0.089,1.993,1.063,2.901,2.813,2.901c1.264,0,2.282-0.774,2.48-1.483h2.771
		c-0.887,2.702-2.771,3.854-5.361,3.854c-3.611,0-5.85-2.48-5.85-6.026c0-3.436,2.371-6.049,5.85-6.049
		c3.898,0,5.782,3.278,5.562,6.803H222.416z M227.534,78.704c-0.288-1.596-0.976-2.438-2.505-2.438
		c-1.993,0-2.569,1.551-2.613,2.438H227.534z"/>
	<path fill="#FFFFFF" d="M244.348,87.102c-0.688,1.839-1.771,2.592-3.943,2.592c-0.643,0-1.284-0.044-1.928-0.109V86.99
		c0.6,0.045,1.219,0.133,1.839,0.11c1.086-0.11,1.439-1.241,1.086-2.148l-4.031-10.745h3.366l2.594,7.843h0.044l2.504-7.843h3.258
		L244.348,87.102z"/>
	<path fill="#FFFFFF" d="M255.758,73.896c3.611,0,5.938,2.394,5.938,6.049c0,3.634-2.325,6.026-5.938,6.026
		c-3.59,0-5.916-2.395-5.916-6.026C249.842,76.289,252.168,73.896,255.758,73.896z M255.758,83.601c2.147,0,2.791-1.839,2.791-3.655
		c0-1.839-0.644-3.678-2.791-3.678c-2.127,0-2.771,1.839-2.771,3.678C252.989,81.762,253.631,83.601,255.758,83.601z"/>
	<path fill="#FFFFFF" d="M274.479,85.661h-2.991v-1.596h-0.065c-0.798,1.284-2.172,1.905-3.501,1.905
		c-3.346,0-4.188-1.885-4.188-4.721v-7.045h3.146v6.469c0,1.885,0.555,2.814,2.017,2.814c1.706,0,2.438-0.953,2.438-3.279v-6.004
		h3.146L274.479,85.661L274.479,85.661z"/>
	<path fill="#FFFFFF" d="M294.041,84.93c0,1.884-0.665,5.073-5.938,5.073c-2.262,0-4.896-1.063-5.053-3.678h3.124
		c0.288,1.174,1.24,1.571,2.35,1.571c1.75,0,2.548-1.195,2.524-2.836v-1.506h-0.044c-0.688,1.195-2.062,1.771-3.436,1.771
		c-3.436,0-4.896-2.614-4.896-5.762c0-2.969,1.706-5.672,4.919-5.672c1.507,0,2.658,0.511,3.412,1.839h0.044v-1.527h2.991
		L294.041,84.93L294.041,84.93z M291.049,79.79c0-1.86-0.644-3.521-2.681-3.521c-1.771,0-2.549,1.551-2.549,3.257
		c0,1.64,0.62,3.435,2.549,3.435C290.164,82.958,291.049,81.43,291.049,79.79z"/>
	<path fill="#FFFFFF" d="M302.126,73.896c3.61,0,5.938,2.394,5.938,6.049c0,3.634-2.326,6.026-5.938,6.026
		c-3.59,0-5.916-2.395-5.916-6.026C296.21,76.289,298.537,73.896,302.126,73.896z M302.126,83.601c2.147,0,2.791-1.839,2.791-3.655
		c0-1.839-0.644-3.678-2.791-3.678c-2.127,0-2.771,1.839-2.771,3.678C299.357,81.762,300,83.601,302.126,83.601z"/>
	<path fill="#FFFFFF" d="M325.344,84.088c-1.265,1.241-2.659,1.885-4.453,1.885c-2.858,0-5.118-1.751-5.118-4.741
		c0-2.216,1.684-3.724,3.545-4.587c-0.842-1.041-1.507-1.994-1.507-3.367c0-2.192,2.017-3.61,4.121-3.61
		c2.393,0,4.343,1.284,4.343,3.788c0,1.839-1.219,3.103-2.813,3.943L325.5,79.9c0.311-0.575,0.486-1.239,0.575-1.883h2.727
		c-0.155,1.418-0.645,2.791-1.528,3.898l3.212,3.744h-3.854L325.344,84.088z M320.98,78.682c-1.108,0.487-2.216,1.33-2.216,2.614
		c0,1.151,1.063,2.082,2.26,2.082c1.13,0,1.928-0.575,2.658-1.396L320.98,78.682z M322.087,71.77c-0.753,0-1.418,0.576-1.418,1.396
		c0,0.997,0.644,1.641,1.239,2.371c0.888-0.576,1.618-1.107,1.618-2.261C323.528,72.456,322.863,71.77,322.087,71.77z"/>
	<path fill="#FFFFFF" d="M340.032,81.939c0.021,1.373,1.174,1.928,2.415,1.928c0.908,0,2.063-0.354,2.063-1.463
		c0-0.952-1.31-1.284-3.567-1.771c-1.815-0.397-3.634-1.041-3.634-3.058c0-2.926,2.525-3.679,4.984-3.679
		c2.504,0,4.809,0.843,5.053,3.654h-2.991c-0.089-1.218-1.021-1.551-2.149-1.551c-0.709,0-1.75,0.133-1.75,1.063
		c0,1.13,1.772,1.285,3.567,1.706c1.839,0.421,3.633,1.086,3.633,3.213c0,3.014-2.614,3.988-5.229,3.988
		c-2.658,0-5.252-0.997-5.386-4.032L340.032,81.939L340.032,81.939z"/>
	<path fill="#FFFFFF" d="M349.359,77.729c0.178-2.946,2.813-3.833,5.384-3.833c2.282,0,5.029,0.511,5.029,3.257v5.96
		c0,1.041,0.11,2.083,0.398,2.549h-3.19c-0.11-0.354-0.199-0.73-0.222-1.106c-0.996,1.041-2.46,1.418-3.854,1.418
		c-2.171,0-3.898-1.086-3.898-3.436c0-2.593,1.949-3.213,3.898-3.479c1.928-0.288,3.724-0.223,3.724-1.508
		c0-1.352-0.932-1.551-2.039-1.551c-1.195,0-1.973,0.486-2.082,1.729L349.359,77.729L349.359,77.729z M356.626,80.056
		c-0.531,0.466-1.641,0.486-2.614,0.665c-0.977,0.198-1.86,0.53-1.86,1.685c0,1.174,0.908,1.462,1.927,1.462
		c2.46,0,2.55-1.949,2.55-2.637L356.626,80.056L356.626,80.056z"/>
	<path fill="#FFFFFF" d="M368.544,85.661h-3.501l-3.923-11.454h3.303l2.415,7.819h0.044l2.415-7.819h3.124L368.544,85.661z"/>
	<path fill="#FFFFFF" d="M376.321,80.698c0.088,1.993,1.063,2.901,2.813,2.901c1.264,0,2.282-0.774,2.48-1.483h2.771
		c-0.889,2.702-2.771,3.854-5.362,3.854c-3.611,0-5.85-2.48-5.85-6.026c0-3.436,2.37-6.049,5.85-6.049
		c3.898,0,5.783,3.278,5.563,6.803H376.321z M381.438,78.704c-0.288-1.596-0.976-2.438-2.503-2.438c-1.994,0-2.57,1.551-2.614,2.438
		H381.438z"/>
	<path fill="#FFFFFF" d="M386.599,82.249h3.479v3.412h-3.479V82.249z M389.966,74.096l-0.862,6.823h-1.573l-0.842-6.823v-4.255
		h3.277V74.096z"/>
</g>
<g>
	<path fill="#FFFFFF" d="M428.471,21.566c2.815,0,5.326,2.025,5.326,5.174c0,3.162-2.511,5.201-5.326,5.201
		s-5.326-2.039-5.326-5.201C423.145,23.591,425.656,21.566,428.471,21.566z M428.471,30.831c2.15,0,3.912-1.72,3.912-4.091
		c0-2.358-1.762-4.064-3.912-4.064c-2.178,0-3.911,1.706-3.911,4.064C424.56,29.111,426.294,30.831,428.471,30.831z M426.405,23.826
		h2.191c1.456,0,2.274,0.458,2.274,1.72c0,1.068-0.665,1.484-1.525,1.553l1.554,2.538h-1.207l-1.415-2.482h-0.721v2.482h-1.151
		V23.826z M427.556,26.254h1.026c0.651,0,1.138-0.097,1.138-0.804c0-0.625-0.666-0.721-1.193-0.721h-0.971V26.254z"/>
</g>
</svg>
